<svg xmlns="http://www.w3.org/2000/svg" width="170" height="39" viewBox="0 0 170 39" version="1.1"><path d="M 12.222 1.233 C 9.354 2.615, 9.918 4.572, 13.101 4.280 C 19.456 3.696, 24.009 3.935, 25.910 4.952 C 29.760 7.012, 28.197 15.797, 23.170 20.346 C 21.036 22.277, 21.262 25, 23.556 25 C 25.543 25, 29.868 18.859, 31.397 13.867 L 32.734 9.500 34.367 13.218 C 35.265 15.263, 36 18.090, 36 19.500 C 36 23.229, 33.495 28.637, 30.468 31.442 C 28.387 33.370, 28.046 34.260, 28.842 35.683 C 29.751 37.307, 30.234 37.079, 33.778 33.354 C 46.007 20.499, 37.099 -0.175, 19.434 0.068 C 16.720 0.105, 13.475 0.629, 12.222 1.233" stroke="none" fill="#f30464" fill-rule="evenodd"/><path d="M 5.801 5.750 C -3.506 15.698, -1.187 31.342, 10.427 36.965 C 17.618 40.446, 30.642 39.157, 28.148 35.211 C 27.517 34.213, 26.677 34.173, 24.417 35.035 C 19.749 36.814, 13.338 35.336, 9.175 31.521 L 5.544 28.194 10.052 28.702 C 15.186 29.281, 22.458 26.829, 21.730 24.764 C 21.485 24.069, 20.433 23.657, 19.392 23.848 C 13.434 24.945, 9.181 25.030, 6.750 24.101 C 4.372 23.192, 4 22.498, 4 18.975 C 4 14.486, 5.710 10.477, 8.830 7.654 C 9.949 6.641, 10.622 5.179, 10.326 4.406 C 9.553 2.392, 8.709 2.642, 5.801 5.750 M 52.667 9.667 C 52.300 10.033, 52 14.758, 52 20.167 L 52 30 58.500 30 C 62.167 30, 65 29.564, 65 29 C 65 28.450, 62.750 28, 60 28 L 55 28 55 24.563 C 55 21.436, 55.285 21.099, 58.173 20.813 C 62.757 20.361, 63.102 18, 58.583 18 C 55.155 18, 55 17.849, 55 14.500 L 55 11 60 11 C 62.750 11, 65 10.550, 65 10 C 65 8.899, 53.738 8.595, 52.667 9.667 M 66 19.500 L 66 30 71.453 30 C 81.446 30, 84.592 26.813, 84.115 17.173 C 84.052 15.893, 82.685 13.531, 81.077 11.923 C 78.488 9.334, 77.460 9, 72.077 9 L 66 9 66 19.500 M 83 10 C 83 10.550, 84.575 11, 86.500 11 L 90 11 90 20.500 C 90 28.278, 90.272 30, 91.500 30 C 92.728 30, 93 28.278, 93 20.500 L 93 11 97 11 C 99.200 11, 101 10.550, 101 10 C 101 9.407, 97.333 9, 92 9 C 86.667 9, 83 9.407, 83 10 M 102 19.500 C 102 25.833, 102.397 30, 103 30 C 103.550 30, 104 28.425, 104 26.500 C 104 23.433, 104.310 23, 106.500 23 C 107.909 23, 109 23.578, 109 24.326 C 109 26.364, 113.367 30, 115.814 30 C 117.017 30, 118 29.550, 118 29 C 118 28.450, 117.403 28, 116.674 28 C 115.945 28, 114.292 26.875, 113 25.500 C 111.119 23.498, 110.974 23, 112.269 23 C 114.479 23, 117 19.152, 117 15.777 C 117 11.236, 113.866 9, 107.500 9 L 102 9 102 19.500 M 122.724 18.750 C 118.637 29.315, 118.474 30, 120.052 30 C 120.631 30, 121.575 28.650, 122.150 27 C 123.101 24.272, 123.600 24, 127.650 24 C 131.700 24, 132.199 24.272, 133.150 27 C 133.725 28.650, 134.827 30, 135.598 30 C 136.369 30, 137 29.747, 137 29.437 C 137 27.444, 128.538 9, 127.624 9 C 127.004 9, 124.799 13.387, 122.724 18.750 M 141.117 10.631 C 139.836 11.528, 138.167 13.750, 137.407 15.569 C 134.390 22.789, 139.376 30, 147.386 30 C 151.546 30, 156.152 27.819, 154.815 26.482 C 154.441 26.107, 152.502 26.339, 150.508 26.997 C 142.462 29.653, 135.922 21.839, 140.601 15.159 C 142.850 11.948, 146.280 10.853, 150.014 12.155 C 153.723 13.448, 155.263 12.397, 152.557 10.418 C 149.950 8.512, 143.983 8.623, 141.117 10.631 M 156 19.500 C 156 28.167, 156.262 30, 157.500 30 C 158.621 30, 159 28.810, 159 25.288 L 159 20.575 163.977 25.477 C 166.714 28.173, 169.275 30.059, 169.667 29.667 C 170.059 29.275, 168.267 26.810, 165.686 24.189 L 160.993 19.424 165.496 15.004 C 167.973 12.573, 170 10.227, 170 9.792 C 170 7.910, 167.270 9.300, 163.288 13.208 L 159 17.416 159 13.208 C 159 10.134, 158.596 9, 157.500 9 C 156.262 9, 156 10.833, 156 19.500 M 69 19.498 L 69 28.260 73.603 27.741 C 79.066 27.126, 80.869 25.580, 81.636 20.856 C 82.432 15.948, 79.038 12.083, 73.248 11.306 L 69 10.737 69 19.498 M 104.667 11.667 C 104.300 12.033, 104 14.283, 104 16.667 C 104 20.952, 104.038 21, 107.500 21 C 110.888 21, 115 18.259, 115 16 C 115 12.757, 106.952 9.382, 104.667 11.667 M 126.747 15.684 C 126.461 16.683, 125.903 18.288, 125.506 19.250 C 124.912 20.694, 125.325 21, 127.872 21 C 130.854 21, 130.918 20.908, 129.789 18.250 C 128.098 14.272, 127.336 13.629, 126.747 15.684" stroke="none" fill="#44149b" fill-rule="evenodd"/></svg>