<?xml version="1.0" standalone="no"?>
<!DOCTYPE svg PUBLIC "-//W3C//DTD SVG 20010904//EN"
 "http://www.w3.org/TR/2001/REC-SVG-20010904/DTD/svg10.dtd">
<svg version="1.0" xmlns="http://www.w3.org/2000/svg"
 width="170.000000pt" height="39.000000pt" viewBox="0 0 170.000000 39.000000"
 preserveAspectRatio="xMidYMid meet">
<metadata>
Created by potrace 1.10, written by Peter Selinger 2001-2011
</metadata>
<g transform="translate(0.000000,39.000000) scale(0.100000,-0.100000)"
fill="#000000" stroke="none">
<path d="M0 195 l0 -195 88 1 c58 1 77 3 57 8 -47 12 -72 28 -102 68 -25 33
-28 44 -28 118 0 74 3 85 28 118 28 37 57 49 57 23 0 -8 -6 -16 -14 -19 -20
-8 -56 -88 -56 -125 0 -22 6 -35 21 -43 28 -14 110 -15 137 0 16 8 21 7 26 -5
8 -22 -39 -36 -106 -32 -51 4 -56 3 -47 -13 5 -10 24 -28 41 -41 28 -19 45
-23 106 -22 72 0 93 -13 41 -27 -13 -4 308 -7 714 -8 l737 -1 -1 43 c-1 38 -7
47 -61 97 l-60 55 3 -49 c3 -34 0 -51 -9 -54 -10 -3 -12 19 -10 100 2 62 7
102 13 100 6 -1 9 -18 7 -36 -5 -51 11 -51 57 -1 45 49 51 52 51 31 0 -8 -19
-31 -42 -50 l-42 -37 47 -47 47 -47 0 143 0 142 -850 0 -850 0 0 -195z m288
171 c82 -43 124 -155 91 -243 -11 -29 -67 -93 -81 -93 -15 0 -8 27 13 46 53
48 65 149 24 211 l-19 28 -7 -47 c-7 -45 -31 -91 -63 -117 -27 -22 -29 8 -2
40 24 29 46 85 46 121 0 37 -88 60 -146 38 -21 -8 -29 -8 -35 2 -5 8 -2 15 9
20 31 12 142 8 170 -6z m352 -76 c0 -5 -22 -10 -50 -10 l-50 0 0 -35 c0 -34 1
-35 40 -35 22 0 40 -4 40 -10 0 -5 -18 -10 -40 -10 -40 0 -40 0 -40 -40 l0
-40 55 0 c32 0 55 -4 55 -10 0 -7 -24 -10 -62 -8 l-63 3 -3 89 c-2 49 -1 95 2
103 6 16 116 19 116 3z m150 -5 c37 -19 50 -43 50 -95 0 -33 -6 -48 -30 -71
-27 -27 -35 -30 -87 -27 l-58 3 -3 89 c-2 49 -1 95 2 103 7 18 89 17 126 -2z
m210 5 c0 -5 -16 -10 -35 -10 l-35 0 0 -95 c0 -57 -4 -95 -10 -95 -6 0 -10 38
-10 95 l0 95 -40 0 c-22 0 -40 5 -40 10 0 6 35 10 85 10 50 0 85 -4 85 -10z
m147 -12 c39 -36 23 -102 -28 -120 -11 -4 -10 -10 5 -27 11 -11 25 -21 33 -21
7 0 13 -4 13 -10 0 -5 -7 -10 -15 -10 -18 0 -65 43 -65 60 0 5 -11 10 -25 10
-22 0 -25 -4 -25 -35 0 -19 -4 -35 -10 -35 -11 0 -14 192 -3 203 3 4 27 7 52
7 32 0 51 -6 68 -22z m176 -71 c21 -50 41 -98 44 -104 3 -7 0 -13 -6 -13 -7 0
-19 16 -27 35 -13 32 -18 35 -57 35 -40 0 -44 -2 -56 -35 -7 -19 -17 -35 -22
-35 -14 0 -12 9 24 95 19 44 36 88 40 98 3 9 10 17 14 17 4 0 25 -42 46 -93z
m210 74 c17 -17 1 -24 -23 -11 -30 16 -86 4 -105 -23 -24 -34 -19 -84 11 -113
26 -27 45 -28 114 -9 l25 7 -24 -21 c-61 -54 -161 -5 -161 79 0 51 12 75 48
95 29 17 97 14 115 -4z"/>
<path d="M680 196 l0 -86 45 0 c58 0 95 32 95 83 0 53 -27 79 -88 85 l-52 5 0
-87z"/>
<path d="M1040 230 l0 -50 39 0 c43 0 71 20 71 50 0 30 -28 50 -71 50 l-39 0
0 -50z"/>
<path d="M1258 220 l-17 -40 35 0 c19 0 34 2 34 4 0 6 -30 76 -33 76 -1 0 -10
-18 -19 -40z"/>
</g>
</svg>
