<?xml version="1.0" standalone="no"?>
<!DOCTYPE svg PUBLIC "-//W3C//DTD SVG 20010904//EN"
 "http://www.w3.org/TR/2001/REC-SVG-20010904/DTD/svg10.dtd">
<svg version="1.0" xmlns="http://www.w3.org/2000/svg"
 width="510.000000pt" height="117.000000pt" viewBox="0 0 510.000000 117.000000"
 preserveAspectRatio="xMidYMid meet">
<metadata>
Created by potrace 1.10, written by Peter Selinger 2001-2011
</metadata>
<g transform="translate(0.000000,117.000000) scale(0.100000,-0.100000)"
fill="#000000" stroke="none">
<path d="M455 1123 c-27 -2 -57 -10 -65 -18 -8 -7 -26 -15 -40 -17 -18 -2 -24
-8 -22 -23 6 -44 10 -47 34 -31 12 9 31 16 41 16 10 0 28 7 42 16 19 12 47 14
142 12 107 -4 158 -14 203 -39 8 -5 25 -13 36 -18 12 -5 27 -24 33 -42 16 -47
14 -171 -4 -195 -8 -10 -15 -29 -15 -41 0 -39 -62 -143 -122 -205 -32 -33 -58
-64 -58 -68 0 -4 8 -14 18 -23 16 -15 21 -13 65 28 26 25 47 49 47 55 0 5 5
10 10 10 6 0 15 10 20 23 6 12 22 42 35 66 14 24 25 52 25 61 0 10 7 23 15 30
11 9 15 34 15 95 0 89 5 115 23 115 14 0 87 -81 87 -96 0 -6 7 -17 15 -24 8
-7 15 -23 15 -35 0 -12 6 -28 14 -34 12 -10 28 -107 28 -171 0 -64 -16 -161
-28 -171 -8 -6 -14 -18 -14 -25 0 -16 -35 -84 -48 -93 -4 -3 -20 -22 -35 -43
-16 -20 -43 -47 -62 -60 -28 -18 -35 -30 -35 -55 0 -23 5 -33 15 -33 19 0 175
154 175 173 0 8 7 20 15 27 8 7 15 20 15 30 0 10 7 23 15 30 8 7 15 27 15 44
1 17 7 42 15 56 20 35 20 199 0 247 -8 19 -15 46 -15 58 0 12 -7 28 -15 35 -8
7 -15 23 -15 35 0 13 -3 25 -7 27 -5 2 -20 21 -35 43 -47 69 -149 165 -176
165 -5 0 -15 7 -22 15 -7 8 -24 15 -38 15 -14 0 -33 7 -42 15 -17 15 -217 27
-315 18z"/>
<path d="M188 988 c-73 -72 -90 -94 -127 -168 -86 -173 -68 -416 43 -575 57
-80 196 -195 237 -195 8 0 20 -5 27 -12 26 -26 257 -48 322 -30 19 6 54 15 76
21 57 15 72 35 49 61 -22 24 -31 25 -68 5 -15 -8 -67 -17 -115 -21 -171 -12
-296 32 -408 145 -53 53 -93 115 -81 127 3 4 32 -1 63 -11 44 -14 80 -17 175
-13 74 2 124 9 131 16 7 7 20 12 30 12 9 0 35 9 57 21 39 20 40 21 25 45 -18
27 -34 30 -72 11 -15 -8 -65 -22 -110 -32 -81 -18 -87 -18 -170 -1 -87 18
-143 39 -174 65 -15 12 -18 31 -18 110 0 94 10 141 47 221 22 49 97 145 133
170 17 12 30 27 30 34 0 13 -31 46 -42 46 -4 0 -30 -24 -60 -52z"/>
<path d="M1584 855 c-10 -15 -13 -83 -13 -280 0 -143 2 -270 5 -282 6 -23 8
-23 180 -23 147 0 174 2 174 15 0 21 -27 25 -180 28 l-135 2 -3 122 -3 122
103 3 c98 3 103 4 106 25 3 22 0 22 -100 25 l-103 3 -3 108 -3 107 145 0 c141
0 173 7 148 32 -6 6 -73 11 -157 12 -138 1 -149 0 -161 -19z"/>
<path d="M2123 872 c-75 -2 -115 -7 -122 -16 -12 -14 -17 -539 -6 -569 6 -15
23 -17 137 -17 169 0 224 15 287 79 133 133 116 374 -32 471 -66 43 -129 56
-264 52z m194 -59 c50 -24 80 -50 112 -98 24 -37 26 -48 26 -145 0 -97 -2
-108 -26 -145 -61 -91 -102 -108 -264 -109 l-130 -1 -3 258 -2 257 124 0 c98
0 133 -4 163 -17z"/>
<path d="M2494 871 c-2 -2 -4 -13 -4 -23 0 -16 10 -18 115 -18 l115 0 0 -281
c0 -262 1 -280 18 -277 16 3 17 27 22 278 l5 275 110 5 c99 4 110 7 110 24 0
17 -14 18 -243 20 -134 0 -246 -1 -248 -3z"/>
<path d="M3081 861 c-20 -13 -21 -21 -21 -303 l0 -289 23 3 c21 3 22 7 22 95
0 52 5 97 11 103 6 6 38 10 75 8 l64 -3 21 -43 c37 -73 83 -123 141 -149 56
-26 83 -25 83 2 0 16 -5 19 -53 30 -44 9 -127 97 -127 134 0 26 5 32 39 42 48
14 100 65 118 116 37 108 -17 228 -114 255 -57 16 -258 15 -282 -1z m289 -46
c49 -25 70 -65 70 -135 0 -68 -15 -103 -58 -134 -21 -16 -47 -21 -140 -24 -73
-3 -117 -1 -124 6 -9 9 -14 200 -9 290 1 19 223 17 261 -3z"/>
<path d="M4325 867 c-103 -32 -166 -90 -205 -187 -18 -44 -21 -69 -17 -125 9
-134 78 -230 197 -272 95 -34 280 2 312 60 15 28 -6 46 -29 25 -43 -38 -97
-53 -183 -53 -77 1 -89 4 -132 31 -27 16 -63 50 -80 74 -32 44 -33 47 -33 150
0 100 1 107 30 150 18 27 53 58 85 78 49 29 62 32 133 32 67 0 87 -4 128 -26
47 -26 85 -27 77 -2 -16 47 -202 90 -283 65z"/>
<path d="M4701 867 c-8 -11 -11 -93 -9 -303 3 -266 4 -289 21 -292 16 -3 17 9
17 142 0 120 3 146 14 146 8 0 81 -65 162 -145 106 -105 153 -145 170 -145 17
0 24 6 24 20 0 11 -6 20 -13 20 -14 0 -277 260 -277 274 0 5 57 67 126 137
108 108 125 130 116 145 -9 17 -26 3 -146 -115 -133 -133 -136 -134 -156 -116
-18 16 -20 30 -20 119 0 107 -8 138 -29 113z"/>
<path d="M3791 837 c-11 -19 -21 -41 -21 -49 0 -8 -4 -18 -8 -24 -4 -5 -18
-36 -31 -69 -12 -33 -27 -69 -31 -80 -5 -11 -19 -45 -31 -75 -11 -30 -27 -68
-34 -85 -8 -16 -21 -48 -30 -70 -9 -22 -20 -48 -25 -57 -6 -10 -10 -27 -10
-38 0 -28 37 -27 45 3 3 12 10 31 15 42 5 11 20 46 34 78 l26 57 128 0 c112 0
131 -2 145 -18 10 -10 17 -22 17 -26 0 -8 14 -42 51 -124 11 -24 24 -40 29
-37 14 9 12 53 -4 83 -8 15 -24 52 -36 82 -11 30 -25 64 -29 75 -5 11 -17 40
-27 65 -15 40 -35 87 -63 155 -5 11 -20 47 -33 80 -14 33 -32 61 -40 63 -9 2
-25 -12 -37 -31z m60 -104 c11 -27 24 -57 29 -68 70 -158 71 -155 -61 -155
-80 0 -101 3 -105 15 -4 8 -2 21 3 28 5 6 18 35 28 62 10 28 25 68 35 90 9 22
20 48 23 58 11 29 27 19 48 -30z"/>
</g>
</svg>
