<?xml version="1.0" standalone="no"?>
<!DOCTYPE svg PUBLIC "-//W3C//DTD SVG 20010904//EN"
 "http://www.w3.org/TR/2001/REC-SVG-20010904/DTD/svg10.dtd">
<svg version="1.0" xmlns="http://www.w3.org/2000/svg"
 width="170.000000pt" height="39.000000pt" viewBox="0 0 170.000000 39.000000"
 preserveAspectRatio="xMidYMid meet">
<metadata>
Created by potrace 1.10, written by Peter Selinger 2001-2011
</metadata>
<g transform="translate(0.000000,39.000000) scale(0.100000,-0.100000)"
fill="#000000" stroke="none">
<path d="M118 372 c-11 -5 -14 -12 -9 -20 6 -10 14 -10 35 -2 58 22 146 -1
146 -38 0 -36 -22 -92 -46 -121 -27 -32 -25 -62 2 -40 32 26 56 72 63 117 l7
47 19 -28 c41 -62 29 -163 -24 -211 -21 -19 -28 -46 -13 -46 14 0 70 64 81 93
33 88 -9 200 -91 243 -28 14 -139 18 -170 6z"/>
<path d="M43 313 c-25 -33 -28 -44 -28 -118 0 -74 3 -85 28 -118 15 -20 40
-43 55 -51 37 -19 111 -28 146 -18 56 15 39 28 -36 28 -61 -1 -78 3 -106 22
-17 13 -36 31 -41 41 -9 16 -4 17 47 13 67 -4 114 10 106 32 -5 12 -10 13 -26
5 -27 -15 -109 -14 -137 0 -15 8 -21 21 -21 43 0 37 36 117 56 125 8 3 14 11
14 19 0 26 -29 14 -57 -23z"/>
<path d="M524 287 c-3 -8 -4 -54 -2 -103 l3 -89 63 -3 c38 -2 62 1 62 8 0 6
-23 10 -55 10 l-55 0 0 40 c0 40 0 40 40 40 22 0 40 5 40 10 0 6 -18 10 -40
10 -39 0 -40 1 -40 35 l0 35 50 0 c28 0 50 5 50 10 0 16 -110 13 -116 -3z"/>
<path d="M664 287 c-3 -8 -4 -54 -2 -103 l3 -89 58 -3 c52 -3 60 0 87 27 24
23 30 38 30 71 0 52 -13 76 -50 95 -37 19 -119 20 -126 2z m138 -37 c26 -32
23 -86 -7 -115 -18 -19 -35 -25 -70 -25 l-45 0 0 86 0 87 52 -5 c38 -4 57 -12
70 -28z"/>
<path d="M830 290 c0 -5 18 -10 40 -10 l40 0 0 -95 c0 -57 4 -95 10 -95 6 0
10 38 10 95 l0 95 35 0 c19 0 35 5 35 10 0 6 -35 10 -85 10 -50 0 -85 -4 -85
-10z"/>
<path d="M1027 293 c-11 -11 -8 -203 3 -203 6 0 10 16 10 35 0 31 3 35 25 35
14 0 25 -5 25 -10 0 -17 47 -60 65 -60 8 0 15 5 15 10 0 6 -6 10 -13 10 -8 0
-22 10 -33 21 -15 17 -16 23 -5 27 27 9 51 42 51 70 0 43 -37 72 -91 72 -25 0
-49 -3 -52 -7z m107 -29 c38 -37 7 -84 -55 -84 l-39 0 0 50 0 50 39 0 c23 0
46 -7 55 -16z"/>
<path d="M1263 283 c-4 -10 -21 -54 -40 -98 -36 -86 -38 -95 -24 -95 5 0 15
16 22 35 12 33 16 35 56 35 39 0 44 -3 57 -35 8 -19 20 -35 27 -35 6 0 9 6 6
13 -3 6 -23 54 -44 104 -21 51 -42 93 -46 93 -4 0 -11 -8 -14 -17z m32 -59
c19 -47 20 -44 -19 -44 l-35 0 17 40 c9 22 18 40 19 40 2 0 10 -16 18 -36z"/>
<path d="M1418 285 c-36 -20 -48 -44 -48 -95 0 -84 100 -133 161 -79 l24 21
-25 -7 c-69 -19 -88 -18 -114 9 -30 29 -35 79 -11 113 19 27 75 39 105 23 24
-13 40 -6 23 11 -18 18 -86 21 -115 4z"/>
<path d="M1566 293 c-3 -3 -6 -51 -6 -105 0 -75 3 -99 13 -95 8 2 11 20 9 53
l-4 49 56 -54 c69 -68 88 -59 21 9 l-49 50 42 36 c23 19 42 42 42 50 0 21 -6
18 -51 -31 -46 -50 -64 -49 -56 1 5 32 -3 51 -17 37z"/>
</g>
</svg>
